<svg width="192" height="192" viewBox="0 0 192 192" fill="none" xmlns="http://www.w3.org/2000/svg">
<path d="M147.2 0H44.8C20.0576 0 0 20.0576 0 44.8V147.2C0 171.942 20.0576 192 44.8 192H147.2C171.942 192 192 171.942 192 147.2V44.8C192 20.0576 171.942 0 147.2 0Z" fill="black" style="fill:black;fill:black;fill-opacity:1;"/>
<path d="M130.49 90.7412C129.869 90.4439 129.238 90.1578 128.599 89.8838C127.487 69.4037 116.286 57.6788 97.4786 57.5587C97.3934 57.5582 97.3087 57.5582 97.2235 57.5582C85.9742 57.5582 76.6183 62.3557 70.8597 71.0855L81.2033 78.1746C85.5051 71.6538 92.2564 70.2636 97.2285 70.2636C97.2858 70.2636 97.3435 70.2636 97.4004 70.2641C103.593 70.3036 108.266 72.1025 111.29 75.6105C113.491 78.1644 114.963 81.6938 115.692 86.1479C110.202 85.2155 104.264 84.9289 97.9163 85.2925C80.035 86.3216 68.5395 96.7409 69.3116 111.219C69.7033 118.563 73.3652 124.881 79.6224 129.008C84.9127 132.498 91.7263 134.204 98.8076 133.817C108.159 133.305 115.496 129.74 120.613 123.222C124.5 118.272 126.959 111.857 128.044 103.775C132.501 106.462 135.804 109.998 137.629 114.249C140.73 121.476 140.911 133.35 131.213 143.031C122.716 151.512 112.503 155.181 97.067 155.295C79.9446 155.167 66.9951 149.681 58.5757 138.988C50.6917 128.975 46.6171 114.512 46.4651 96C46.6171 77.4884 50.6917 63.0252 58.5757 53.012C66.9951 42.3187 79.9443 36.8325 97.0667 36.7054C114.313 36.8335 127.489 42.346 136.23 53.091C140.517 58.3602 143.748 64.9866 145.879 72.7127L158 69.4817C155.418 59.9716 151.354 51.7768 145.825 44.9805C134.618 31.205 118.227 24.1464 97.109 24H97.0245C75.949 24.1459 59.7423 31.2313 48.8546 45.0595C39.1661 57.3648 34.1684 74.4867 34.0005 95.9493L34 96L34.0005 96.0506C34.1684 117.513 39.1661 134.635 48.8546 146.941C59.7423 160.769 75.949 167.854 97.0245 168H97.109C115.846 167.87 129.054 162.969 139.934 152.108C154.169 137.899 153.741 120.089 149.048 109.156C145.683 101.315 139.265 94.9471 130.49 90.7412ZM98.1382 121.13C90.3011 121.571 82.1592 118.057 81.7578 110.529C81.4602 104.948 85.7334 98.7195 98.6191 97.9776C100.095 97.8925 101.543 97.851 102.965 97.851C107.646 97.851 112.024 98.3053 116.005 99.1748C114.52 117.701 105.812 120.709 98.1382 121.13Z" fill="white" style="fill:white;fill:white;fill-opacity:1;"/>
</svg>
